<?xml version="1.0" standalone="no"?>
<!DOCTYPE svg PUBLIC "-//W3C//DTD SVG 20010904//EN"
 "http://www.w3.org/TR/2001/REC-SVG-20010904/DTD/svg10.dtd">
<svg version="1.0" xmlns="http://www.w3.org/2000/svg"
 width="700.000000pt" height="700.000000pt" viewBox="0 0 700.000000 700.000000"
 preserveAspectRatio="xMidYMid meet">
<metadata>
Created by potrace 1.14, written by Peter Selinger 2001-2017
</metadata>
<g transform="translate(0.000000,700.000000) scale(0.100000,-0.100000)"
fill="#000000" stroke="none">
<path d="M1664 6700 c-51 -16 -126 -72 -155 -115 -43 -62 -51 -110 -52 -290
-1 -106 -5 -165 -12 -165 -33 -2 -97 -13 -145 -26 -192 -54 -338 -199 -407
-404 -17 -53 -18 -146 -19 -2315 -1 -2450 -4 -2331 52 -2454 83 -179 251 -310
439 -339 22 -4 994 -6 2160 -6 l2120 0 78 27 c214 75 363 254 395 472 4 28 7
1065 7 2305 l0 2255 -28 78 c-53 151 -158 273 -295 341 -59 30 -157 57 -217
61 l-40 2 -2 174 c-1 195 -10 234 -67 303 -19 23 -58 55 -87 71 -48 26 -64 30
-139 30 -75 0 -91 -4 -139 -30 -29 -16 -68 -47 -87 -69 -55 -65 -67 -116 -67
-308 -1 -144 -3 -168 -17 -169 -8 0 -663 -1 -1455 -1 l-1440 -1 -1 170 c-2
193 -13 245 -68 309 -53 62 -126 97 -210 100 -39 2 -85 -1 -102 -6z"/>
</g>
</svg>
